<svg width="24" height="22" viewBox="0 0 24 22" fill="none" xmlns="http://www.w3.org/2000/svg">
<path d="M21.4286 0H2.57143C1.88944 0 1.23539 0.248341 0.753154 0.690391C0.270918 1.13244 0 1.73199 0 2.35714L0 19.6429C0 20.268 0.270918 20.8676 0.753154 21.3096C1.23539 21.7517 1.88944 22 2.57143 22H9.92411V14.5205H6.54911V11H9.92411V8.31679C9.92411 5.26478 11.9063 3.57893 14.9421 3.57893C16.3961 3.57893 17.9164 3.81661 17.9164 3.81661V6.81214H16.2413C14.5907 6.81214 14.0759 7.75107 14.0759 8.71406V11H17.7605L17.1712 14.5205H14.0759V22H21.4286C22.1106 22 22.7646 21.7517 23.2468 21.3096C23.7291 20.8676 24 20.268 24 19.6429V2.35714C24 1.73199 23.7291 1.13244 23.2468 0.690391C22.7646 0.248341 22.1106 0 21.4286 0Z" fill="white"/>
</svg>
