<svg width="258" height="251" viewBox="0 0 258 251" fill="none" xmlns="http://www.w3.org/2000/svg">
<g opacity="0.8" clip-path="url(#clip0_30_23)">
<path d="M92.5328 79.0658C85.5745 73.0382 85.9102 71.0957 93.8623 68.2234C104.898 64.2396 116.199 61.5049 127.954 61.1494C144.079 60.6667 159.203 63.8245 172.197 74.115C173.103 74.8348 173.87 75.8328 174.883 76.2939C176.178 76.885 176.18 79.2291 178.297 78.6237C180.474 78.0019 182.026 76.4947 183.451 74.948C184.259 74.0693 184.703 72.7074 184.942 71.4936C185.412 69.0955 186.183 66.8805 189.027 67.0917C191.684 67.2865 193.981 68.2083 195.295 71.1556C198.206 77.6799 194.422 86.0662 189.847 89.7385C187.742 91.4289 187.706 92.8106 188.747 94.6645C196.652 108.713 196.981 123.769 194.032 138.994C191.86 150.191 187.436 160.673 181.344 170.388C179.502 173.331 177.712 176.31 175.789 179.195C173.954 181.938 172.312 181.973 170.265 179.442C169.116 178.023 168.042 176.545 166.931 175.09C165.399 176.267 163.87 177.455 162.332 178.624C151.54 186.843 139.369 192.069 126.255 195.257C123.494 195.929 122.512 194.64 122.524 192.049C122.533 190.005 122.042 189.221 119.612 190.162C112.572 192.885 105.184 194.162 97.6488 194.66C92.9663 194.97 92.3338 194.4 92.8971 189.88C92.9502 189.451 92.9534 189.014 93.0659 188.599C93.761 186.032 93.0672 185.243 90.2514 185.705C80.7935 187.267 71.6228 186.429 63.007 181.798C61.5926 181.039 60.7702 180.163 60.3632 178.54C57.9473 168.891 59.1677 159.614 63.2207 150.674C64.2679 148.364 63.732 147.808 61.3783 147.529C54.5108 146.72 54.4542 146.601 56.7544 139.879C59.06 133.142 62.1285 126.746 66.1719 120.872C67.344 119.172 66.8859 118.647 65.1747 118.089C61.6257 116.928 61.2929 115.858 63.1548 112.538C70.5121 99.4112 79.5903 87.7775 92.5328 79.0658ZM94.3206 73.4093C94.6746 73.9795 94.8528 74.3785 95.1304 74.6879C96.2614 75.9516 97.5354 77.1583 98.82 78.1692C111.886 88.4822 127.053 92.4708 143.458 92.4776C153.768 92.481 163.935 91.1147 174.038 89.1698C175.207 88.947 176.515 88.8397 177.287 89.7671C178.177 90.8381 177.617 92.1211 177.093 93.31C175.244 97.4847 173.264 101.616 171.649 105.881C165.294 122.657 161.341 139.752 165.645 157.747C167.048 163.616 169.374 169.134 172.805 174.347C180.895 163.074 186.554 150.957 189.196 137.61C191.333 126.833 191.404 116.029 188.036 105.345C186.618 100.853 184.264 96.8806 182.158 92.7621C181.278 91.0367 181.718 89.5691 183.055 88.9491C186.591 87.3093 188.318 84.1183 190.064 81.0995C191.53 78.5659 191.941 75.5729 190.122 72.2644C188.248 77.0814 185.935 80.7538 181.232 82.8749C176.166 85.1585 176.388 85.5357 172.287 81.0695C168.44 76.8826 163.668 73.859 158.55 71.6183C150.809 68.2322 142.69 66.3689 134.12 66.1384C120.339 65.7653 107.265 68.6315 94.3206 73.4093ZM170.599 94.9964C158.276 97.0041 146.447 98.1011 134.501 97.149C133.707 97.0851 132.88 96.6061 132.115 97.463C123.421 107.231 118.87 118.271 121.435 131.571C121.694 132.904 122.426 133.5 123.533 133.997C134.755 139.007 145.817 138.176 156.676 132.934C158.478 132.066 159.911 130.87 160.145 128.208C160.554 123.591 162.024 119.101 163.344 114.62C165.284 108.035 167.971 101.732 170.599 94.9964ZM116.06 117.446C111.281 118.919 106.48 119.612 101.681 120.315C100.304 120.519 99.5341 121.083 98.8313 122.423C95.1955 129.34 92.7165 136.654 91.3081 144.293C90.5553 148.369 89.8168 153.013 91.4472 156.553C92.6215 159.113 97.3093 158.733 100.469 159.526C100.877 159.631 101.271 159.849 101.68 159.869C109.993 160.336 118.244 160.181 126.379 157.97C128.176 157.481 128.957 156.684 129.593 155.088C131.284 150.819 133.153 146.616 135.441 142.577C130.334 141.265 125.241 140.366 120.458 138.081C117.979 136.896 116.932 135.446 116.536 132.914C115.728 127.837 115.692 122.751 116.06 117.446ZM127.334 190.026C128.118 189.62 128.464 189.35 128.857 189.249C141.179 186.069 152.283 180.545 162.057 172.34C163.831 170.853 164.694 169.787 163.432 167.278C161.987 164.402 161.209 161.141 160.509 157.963C159.198 152.033 158.434 146.022 159.001 139.916C159.179 137.981 159.049 137.442 156.736 138.424C152.382 140.279 147.899 142.047 143.015 142.121C141.616 142.142 140.832 142.959 140.175 144.234C134.393 155.424 129.785 167.028 127.895 179.548C127.382 182.892 127.51 186.328 127.334 190.026ZM126.588 96.3641C125.857 95.9853 125.414 95.6114 124.919 95.5199C114.966 93.7024 105.873 89.9629 97.8902 83.646C97.1166 83.0344 96.1755 82.5414 95.0348 83.4675C90.2201 87.3684 85.2005 90.9758 81.0642 95.7077C76.2069 101.268 71.8929 107.16 68.4587 113.684C69.2413 114.222 70.127 114.504 71.0987 114.695C86.2092 117.634 101.086 116.155 115.881 112.478C117.294 112.126 117.747 111.427 118.182 110.248C120.061 105.143 122.761 100.516 126.588 96.3641ZM65.191 177.331C65.9931 177.685 66.7626 178.028 67.5366 178.361C75.8631 181.955 84.4281 181.923 93.1653 180.228C94.7383 179.926 94.9761 179.021 95.3328 177.896C96.5084 174.138 97.8588 170.394 99.9944 167.115C101.635 164.596 100.072 164.352 98.4169 164.162C95.3083 163.806 92.4632 162.64 89.5279 161.708C87.2462 160.985 86.217 159.557 86.1149 157.255C85.981 154.168 85.5728 151.101 86.0595 147.995C86.2322 146.875 86.4857 145.075 84.2528 145.795C79.9756 147.167 75.5845 147.703 71.129 147.854C70.0852 147.888 69.714 148.444 69.2833 149.287C65.5564 156.638 63.6605 164.373 64.2983 172.635C64.42 174.203 64.8818 175.741 65.191 177.331ZM93.9152 120.999C87.1163 121.72 80.978 121.249 74.8897 120.183C73.347 119.911 72.3222 120.451 71.6179 121.557C67.8688 127.413 64.3804 133.387 62.0805 140.023C61.3656 142.092 61.6255 142.681 63.7055 142.812C71.1686 143.283 78.4862 142.598 85.5533 140.041C86.19 139.81 87.0427 139.756 87.3404 138.587C88.8515 132.668 90.9961 126.957 93.9152 120.999ZM126.487 163.272C120.402 164.343 114.557 165.233 108.637 165.275C107.495 165.284 106.935 165.714 106.376 166.501C101.903 172.771 99.5761 179.87 98.273 187.373C97.9991 188.952 98.1463 189.684 100.198 189.468C107.32 188.718 114.144 186.804 120.907 184.587C121.987 184.234 122.635 183.638 122.715 182.065C123.029 175.768 124.722 169.703 126.487 163.272Z" fill="#4F381D" fill-opacity="0.8"/>
</g>
<defs>
<clipPath id="clip0_30_23">
<rect width="161.287" height="200.775" fill="white" transform="translate(158.551 0.169556) rotate(52.0431)"/>
</clipPath>
</defs>
</svg>
