<?xml version="1.0" standalone="no"?>
<!DOCTYPE svg PUBLIC "-//W3C//DTD SVG 20010904//EN"
 "http://www.w3.org/TR/2001/REC-SVG-20010904/DTD/svg10.dtd">
<svg version="1.0" xmlns="http://www.w3.org/2000/svg"
 width="100.000000pt" height="100.000000pt" viewBox="0 0 100.000000 100.000000"
 preserveAspectRatio="xMidYMid meet">
<metadata>
Created by potrace 1.14, written by Peter Selinger 2001-2017
</metadata>
<g transform="translate(0.000000,100.000000) scale(0.100000,-0.100000)"
fill="#000000" stroke="none">
<path d="M409 984 c-7 -9 -12 -34 -11 -57 2 -23 3 -85 3 -137 -1 -93 -1 -94
-35 -130 -58 -60 -69 -92 -65 -189 2 -47 3 -166 1 -264 -2 -127 0 -182 9 -193
17 -21 361 -21 378 0 9 11 11 66 9 193 -2 98 -1 217 1 264 4 97 -7 129 -65
189 -34 36 -34 37 -35 130 0 52 1 114 3 137 3 63 -11 73 -102 73 -59 0 -81 -4
-91 -16z m141 -44 c0 -5 -22 -10 -50 -10 -27 0 -50 5 -50 10 0 6 23 10 50 10
28 0 50 -4 50 -10z m-5 -167 c7 -93 9 -98 45 -137 52 -57 60 -76 60 -140 0
-50 -2 -56 -21 -56 -12 0 -37 14 -56 30 -47 41 -99 41 -146 0 -19 -17 -44 -30
-56 -30 -19 0 -21 6 -21 56 0 64 8 83 60 140 36 39 38 44 45 137 l7 97 38 0
38 0 7 -97z m-6 -330 c33 -27 48 -131 30 -203 -11 -41 -21 -58 -41 -70 -70
-38 -121 60 -100 190 11 67 35 100 72 100 10 0 27 -8 39 -17z m-154 -133 c0
-65 -3 -90 -12 -90 -9 0 -13 22 -13 74 0 41 -3 81 -6 90 -4 11 0 16 12 16 17
0 19 -9 19 -90z m261 74 c-3 -9 -6 -49 -6 -90 0 -52 -4 -74 -12 -74 -10 0 -13
25 -13 90 0 81 2 90 19 90 12 0 16 -5 12 -16z m-219 -234 c47 -41 99 -41 146
0 19 17 44 30 56 30 19 0 21 -5 21 -65 l0 -65 -150 0 -150 0 0 65 c0 60 2 65
21 65 12 0 37 -13 56 -30z"/>
</g>
</svg>
